<svg xmlns="http://www.w3.org/2000/svg" class="icon icon-tabler icon-tabler-ticket" width="24" height="24" viewBox="0 0 24 24" stroke-width="1.8" stroke="currentColor" fill="none" stroke-linecap="round" stroke-linejoin="round">
  <path stroke="none" d="M0 0h24v24H0z" fill="none"/>
  <path d="M15 5l0 2" />
  <path d="M15 11l0 2" />
  <path d="M15 17l0 2" />
  <path d="M5 5m0 2a2 2 0 0 1 2 -2h10a2 2 0 0 1 2 2a2 2 0 1 0 0 4a2 2 0 0 1 0 4a2 2 0 1 0 0 4a2 2 0 0 1 -2 2h-10a2 2 0 0 1 -2 -2a2 2 0 1 0 0 -4a2 2 0 0 1 0 -4a2 2 0 1 0 0 -4" />
</svg>
